<?xml version="1.0" standalone="no"?>
<!DOCTYPE svg PUBLIC "-//W3C//DTD SVG 20010904//EN" "http://www.w3.org/TR/2001/REC-SVG-20010904/DTD/svg10.dtd">
<svg version="1.0" xmlns="http://www.w3.org/2000/svg"
    width="320.000000pt" height="319.000000pt" viewBox="0 0 320.000000 319.000000"
    preserveAspectRatio="xMidYMid meet">

    <!-- Fundo -->
    <rect width="100%" height="100%" fill="#FCC117" />

    <g transform="translate(0.000000,319.000000) scale(0.100000,-0.100000)"
        fill="#000000" stroke="none">
        <path
            d="M1547 2616 c-42 -112 -77 -208 -77 -214 0 -8 22 -22 34 -22 2 0 30
70 62 155 32 85 61 151 65 147 4 -4 34 -72 67 -152 33 -79 63 -145 68 -147 5
-1 15 1 23 6 10 7 -4 50 -68 206 -45 109 -85 204 -89 211 -4 8 -38 -69 -85
-190z" />
        <path
            d="M1178 2403 c35 -34 76 -90 101 -135 44 -81 47 -83 69 -69 11 6 8 20
-16 67 -17 33 -42 74 -56 93 -14 19 -24 37 -21 39 12 12 156 -72 202 -117 63
-62 98 -121 138 -234 l31 -88 18 63 c40 143 148 280 268 336 111 52 114 52 70
-11 -21 -30 -46 -73 -57 -96 -16 -36 -17 -44 -4 -52 8 -5 16 -9 19 -9 3 1 25
36 49 80 27 49 66 101 102 135 l58 55 -43 0 c-165 0 -375 -133 -452 -287 l-31
-61 -34 71 c-62 129 -181 223 -334 262 -32 8 -76 15 -97 15 l-39 0 59 -57z" />
        <path
            d="M1065 2130 c-61 -9 -169 -39 -163 -46 3 -2 30 -11 62 -19 137 -36
284 -128 331 -210 17 -28 34 -45 46 -45 24 0 24 11 0 59 -30 58 -123 137 -214
181 l-82 39 72 1 c40 0 96 -5 125 -11 135 -29 265 -122 307 -219 21 -48 42
-63 56 -39 13 20 -46 118 -103 171 -126 116 -272 162 -437 138z" />
        <path
            d="M1981 2124 c-131 -35 -274 -141 -319 -237 -27 -57 -27 -63 -3 -70 14
-3 23 6 40 44 61 134 238 229 427 229 l79 0 -92 -45 c-101 -50 -178 -116 -212
-184 -20 -38 -20 -42 -5 -48 12 -4 24 2 38 21 89 116 184 182 321 221 108 31
108 30 17 59 -96 30 -203 34 -291 10z" />
        <path
            d="M2603 1538 c-12 -6 -27 -23 -33 -38 -16 -38 -2 -62 52 -92 53 -29 63
-58 21 -58 -16 0 -34 5 -40 11 -8 8 -17 7 -33 -4 l-21 -15 22 -21 c31 -28 101
-29 129 -1 42 42 19 95 -59 135 -31 16 -32 18 -17 33 14 14 19 15 37 3 18 -11
24 -10 37 3 14 14 15 18 2 31 -20 20 -70 27 -97 13z" />
        <path
            d="M620 1419 c0 -119 0 -120 23 -117 18 2 23 10 25 41 3 33 6 37 32 37
42 0 83 39 83 80 0 51 -39 80 -109 80 l-54 0 0 -121z m110 56 c17 -20 -3 -45
-36 -45 -20 0 -24 5 -24 30 0 25 4 30 24 30 13 0 29 -7 36 -15z" />
        <path d="M840 1420 l0 -120 25 0 25 0 0 120 0 120 -25 0 -25 0 0 -120z" />
        <path
            d="M960 1420 l0 -120 25 0 c24 0 25 2 25 67 l0 67 70 -69 c51 -50 71
-65 75 -54 3 9 4 62 3 120 -3 99 -4 104 -25 107 -22 3 -23 0 -23 -57 0 -34 -4
-61 -8 -61 -4 0 -34 27 -67 60 -33 33 -63 60 -67 60 -4 0 -8 -54 -8 -120z" />
        <path
            d="M1227 1533 c-2 -5 -3 -57 -3 -118 l1 -110 73 -3 c71 -3 72 -2 72 22
0 23 -4 25 -47 28 -40 3 -48 6 -48 23 0 16 8 21 43 23 37 3 42 6 42 28 0 22
-4 24 -45 24 -38 0 -45 3 -45 20 0 17 7 20 50 20 47 0 50 2 50 25 0 24 -2 25
-69 25 -39 0 -72 -3 -74 -7z" />
        <path
            d="M1475 1426 c-30 -65 -55 -119 -55 -122 0 -12 51 -2 56 11 9 21 103
21 118 -1 7 -9 22 -14 33 -12 20 3 18 9 -32 116 -29 62 -55 116 -59 119 -3 3
-31 -47 -61 -111z m63 -44 c-27 -5 -32 2 -18 29 l13 22 13 -24 c11 -22 11 -24
-8 -27z" />
        <path
            d="M1700 1420 l0 -120 25 0 c23 0 25 4 25 40 0 39 1 40 35 40 46 0 85
37 85 80 0 19 -9 40 -25 55 -20 21 -34 25 -85 25 l-60 0 0 -120z m115 40 c0
-21 -5 -26 -32 -28 -31 -3 -33 -1 -33 28 0 29 2 31 33 28 27 -2 32 -7 32 -28z" />
        <path
            d="M1930 1420 l0 -120 25 0 c23 0 25 4 25 40 0 38 2 40 29 40 36 0 78
35 86 71 5 19 0 34 -20 57 -25 29 -32 32 -86 32 l-59 0 0 -120z m110 55 c17
-20 -3 -45 -36 -45 -20 0 -24 5 -24 30 0 25 4 30 24 30 13 0 29 -7 36 -15z" />
        <path
            d="M2150 1420 l0 -120 65 0 c81 0 115 20 115 68 0 40 -20 52 -86 52 -45
0 -50 2 -50 25 0 23 4 25 44 25 39 0 46 3 46 20 0 19 -7 20 -70 20 l-64 0 0
-120z m116 42 c16 -18 7 -32 -22 -38 -30 -6 -34 -3 -34 20 0 19 6 23 30 23 16
0 31 -2 36 -5z" />
        <path
            d="M2360 1419 c0 -119 0 -120 23 -117 18 2 23 10 25 41 3 33 6 37 32 37
42 0 83 39 83 80 0 51 -39 80 -109 80 l-54 0 0 -121z m110 56 c17 -20 -3 -45
-36 -45 -20 0 -24 5 -24 30 0 25 4 30 24 30 13 0 29 -7 36 -15z" />
    </g>
</svg>